<svg width="512" height="410" viewBox="0 0 512 410" fill="none" xmlns="http://www.w3.org/2000/svg">
<path fill-rule="evenodd" clip-rule="evenodd" d="M423.936 133.25C431.853 133.25 438.272 139.675 438.272 147.6C438.272 155.525 431.853 161.95 423.936 161.95H342.016C349.933 161.95 356.352 168.375 356.352 176.3C356.352 184.225 349.933 190.65 342.016 190.65H387.072C394.989 190.65 401.408 197.075 401.408 205C401.408 212.925 394.989 219.35 387.072 219.35H366.236C356.253 219.35 348.16 225.775 348.16 233.7C348.16 238.984 352.256 243.767 360.448 248.05C368.365 248.05 374.784 254.475 374.784 262.4C374.784 270.325 368.365 276.75 360.448 276.75H190.464C182.546 276.75 176.128 270.325 176.128 262.4C176.128 254.475 182.546 248.05 190.464 248.05H110.592C102.674 248.05 96.2559 241.625 96.2559 233.7C96.2559 225.775 102.674 219.35 110.592 219.35H192.512C200.429 219.35 206.848 212.925 206.848 205C206.848 197.075 200.429 190.65 192.512 190.65H141.312C133.394 190.65 126.976 184.225 126.976 176.3C126.976 168.375 133.394 161.95 141.312 161.95H223.232C215.314 161.95 208.896 155.525 208.896 147.6C208.896 139.675 215.314 133.25 223.232 133.25H423.936ZM423.936 190.65C431.853 190.65 438.272 197.075 438.272 205C438.272 212.925 431.853 219.35 423.936 219.35C416.018 219.35 409.6 212.925 409.6 205C409.6 197.075 416.018 190.65 423.936 190.65Z" fill="#E0E0E0"/>
</svg>
