<svg width="18" height="18" viewBox="0 0 18 18" fill="none" xmlns="http://www.w3.org/2000/svg">
<path d="M9.65394 4.38L9.65403 4.38C9.68431 3.97748 9.86561 3.60127 10.1616 3.3268C10.4576 3.05234 10.8464 2.89989 11.25 2.9L9.65394 4.38ZM9.65394 4.38L9.65381 4.38417M9.65394 4.38L9.65381 4.38417M9.65381 4.38417L9.65006 4.49667L9.65 4.49667M9.65381 4.38417L9.65 4.49667M9.65 4.49667V4.5M9.65 4.49667V4.5M9.65 4.5V6V6.1M9.65 4.5V6.1M9.65 6.1H9.75M9.65 6.1H9.75M9.75 6.1H11.25C11.25 6.1 11.25 6.1 11.25 6.1C11.6536 6.10012 12.0424 5.94767 12.3384 5.67321C12.6344 5.39873 12.8157 5.02253 12.846 4.62L12.8461 4.62001M9.75 6.1L12.8461 4.62001M12.8461 4.62001L12.8462 4.61584M12.8461 4.62001L12.8462 4.61584M12.8462 4.61584L12.8499 4.50334L12.85 4.50334M12.8462 4.61584L12.85 4.50334M12.85 4.50334V4.5M12.85 4.50334V4.5M12.85 4.5C12.85 4.07566 12.6814 3.66869 12.3814 3.36863M12.85 4.5L12.3814 3.36863M12.3814 3.36863C12.0813 3.06858 11.6744 2.90001 11.25 2.9L12.3814 3.36863ZM11.2498 1.6L11.25 1.6C11.7592 1.59994 12.2594 1.73394 12.7003 1.98851C13.1413 2.24308 13.5074 2.60925 13.762 3.05022C14.0165 3.49118 14.1505 3.99139 14.1504 4.50055C14.1503 5.0097 14.0161 5.50986 13.7614 5.95073L13.6747 6.10079L13.848 6.10075L17.15 6.10003V7.4H15.75H15.65V7.5V15C15.65 15.1724 15.5815 15.3377 15.4596 15.4596C15.3377 15.5815 15.1724 15.65 15 15.65H3C2.82761 15.65 2.66228 15.5815 2.54038 15.4596C2.41848 15.3377 2.35 15.1724 2.35 15V7.5V7.4H2.25H0.85V6.10003L4.15198 6.10075L4.32525 6.10079L4.2386 5.95075C3.8789 5.32789 3.7635 4.59359 3.9148 3.89042C4.0661 3.18725 4.47331 2.56541 5.05736 2.14562C5.64141 1.72583 6.36062 1.53807 7.07534 1.61878C7.79006 1.6995 8.44928 2.04293 8.925 2.58239L9.00016 2.66763L9.07514 2.58223C9.34668 2.27298 9.6812 2.02535 10.0563 1.85595C10.4313 1.68654 10.8383 1.59928 11.2498 1.6ZM8.35 7.5V7.4H8.25H3.75H3.65V7.5V14.25V14.35H3.75H8.25H8.35V14.25V7.5ZM14.35 7.5V7.4H14.25H9.75H9.65V7.5V14.25V14.35H9.75H14.25H14.35V14.25V7.5ZM6.75335 2.90006L6.75336 2.90002L6.75045 2.90001C6.33526 2.89815 5.93561 3.05775 5.63593 3.34511C5.33624 3.63246 5.15999 4.02506 5.14441 4.43996C5.12884 4.85486 5.27515 5.25956 5.55244 5.56858C5.82973 5.8776 6.21629 6.06672 6.63045 6.09601L6.63044 6.09607L6.63417 6.0962L6.74667 6.09995L6.74667 6.1H6.75H8.25H8.35V6V4.5C8.35002 4.11766 8.21311 3.74794 7.96407 3.45781C7.71504 3.16769 7.37034 2.97633 6.9924 2.91841L6.99241 2.91835L6.98886 2.91793L6.87336 2.90443L6.8734 2.90409L6.8651 2.90381L6.75335 2.90006Z" fill="black" stroke="white" stroke-width="0.2"/>
</svg>
