<?xml version="1.0" encoding="iso-8859-1"?>
<!-- Generator: Adobe Illustrator 19.0.0, SVG Export Plug-In . SVG Version: 6.00 Build 0)  -->
<svg version="1.1" id="Layer_1" xmlns="http://www.w3.org/2000/svg" xmlns:xlink="http://www.w3.org/1999/xlink" x="0px" y="0px"
	 viewBox="0 0 512 512" style="enable-background:new 0 0 512 512;" xml:space="preserve">
<g>
	<g>
		<path d="M404.211,204.8v-51.2c0-84.696-68.904-153.6-153.6-153.6s-153.6,68.904-153.6,153.6v51.2H53.895v105.095
			C53.895,421.336,144.559,512,256,512s202.105-90.664,202.105-202.105V204.8H404.211z M113.179,153.6
			c0-75.78,61.651-137.432,137.432-137.432S388.042,77.82,388.042,153.6v51.2h-26.947v-51.2
			c0-60.922-49.563-110.484-110.484-110.484c-60.922,0-110.484,49.563-110.484,110.484v51.2h-26.947V153.6z M344.926,153.6v51.2
			H156.295v-51.2c0-52.006,42.31-94.316,94.316-94.316C302.617,59.284,344.926,101.594,344.926,153.6z M441.937,309.895
			c0,102.526-83.411,185.937-185.937,185.937S70.063,412.421,70.063,309.895v-88.926h371.874V309.895z"/>
	</g>
</g>
<g>
	<g>
		<rect x="97.011" y="241.448" width="16.168" height="16.168"/>
	</g>
</g>
<g>
	<g>
		<rect x="247.603" y="241.448" width="16.802" height="16.168"/>
	</g>
</g>
<g>
	<g>
		<rect x="197.19" y="241.448" width="16.802" height="16.168"/>
	</g>
</g>
<g>
	<g>
		<rect x="146.788" y="241.448" width="16.802" height="16.168"/>
	</g>
</g>
<g>
	<g>
		<rect x="298.006" y="241.448" width="16.803" height="16.168"/>
	</g>
</g>
<g>
	<g>
		<rect x="348.419" y="241.448" width="16.803" height="16.168"/>
	</g>
</g>
<g>
	<g>
		<rect x="398.821" y="241.448" width="16.168" height="16.168"/>
	</g>
</g>
<g>
	<g>
		<path d="M132.815,382.212l-13.937,8.197c2.926,4.977,6.168,9.853,9.631,14.493l12.957-9.671
			C138.353,391.061,135.443,386.681,132.815,382.212z"/>
	</g>
</g>
<g>
	<g>
		<path d="M116.067,338.615l-15.842,3.235c1.159,5.674,2.645,11.341,4.417,16.841l15.389-4.958
			C118.44,348.796,117.107,343.709,116.067,338.615z"/>
	</g>
</g>
<g>
	<g>
		<rect x="97.011" y="290.848" width="16.168" height="16.533"/>
	</g>
</g>
<g>
	<g>
		<path d="M379.26,382.085c-2.629,4.479-5.537,8.865-8.644,13.036l12.966,9.658c3.458-4.643,6.695-9.523,9.621-14.507
			L379.26,382.085z"/>
	</g>
</g>
<g>
	<g>
		<path d="M395.966,338.461c-1.035,5.098-2.364,10.188-3.949,15.125l15.393,4.945c1.768-5.503,3.249-11.173,4.402-16.856
			L395.966,338.461z"/>
	</g>
</g>
<g>
	<g>
		<path d="M349.345,417.994c-3.935,3.401-8.096,6.619-12.37,9.565l9.177,13.312c4.757-3.279,9.387-6.861,13.766-10.644
			L349.345,417.994z"/>
	</g>
</g>
<g>
	<g>
		<path d="M162.759,418.084l-10.56,12.243c4.382,3.78,9.018,7.358,13.778,10.633l9.166-13.32
			C170.864,424.697,166.698,421.482,162.759,418.084z"/>
	</g>
</g>
<g>
	<g>
		<rect x="398.821" y="290.687" width="16.168" height="16.533"/>
	</g>
</g>
<g>
	<g>
		<path d="M309.498,442.36c-4.818,1.948-9.794,3.646-14.791,5.05l4.373,15.566c5.567-1.564,11.111-3.457,16.477-5.627
			L309.498,442.36z"/>
	</g>
</g>
<g>
	<g>
		<path d="M202.65,442.422l-6.045,14.995c5.369,2.164,10.918,4.052,16.491,5.61l4.354-15.571
			C212.447,446.058,207.468,444.363,202.65,442.422z"/>
	</g>
</g>
<g>
	<g>
		<path d="M263.905,452.5c-5.177,0.283-10.464,0.286-15.649,0.01l-0.861,16.146c2.85,0.152,5.744,0.229,8.604,0.229
			c2.921,0,5.877-0.081,8.786-0.239L263.905,452.5z"/>
	</g>
</g>
<g>
	<g>
		<path d="M256,269.474c-22.289,0-40.421,18.132-40.421,40.421c0,12.754,6.091,24.746,16.168,32.326v72.769h48.505v-72.769
			c10.077-7.58,16.168-19.572,16.168-32.326C296.421,287.606,278.289,269.474,256,269.474z M268.12,330.898l-4.036,2.335v65.589
			h-16.168v-65.589l-4.036-2.336c-7.484-4.33-12.133-12.377-12.133-21.002c0-13.373,10.88-24.253,24.253-24.253
			s24.253,10.879,24.253,24.253C280.253,318.519,275.604,326.567,268.12,330.898z"/>
	</g>
</g>
<g>
</g>
<g>
</g>
<g>
</g>
<g>
</g>
<g>
</g>
<g>
</g>
<g>
</g>
<g>
</g>
<g>
</g>
<g>
</g>
<g>
</g>
<g>
</g>
<g>
</g>
<g>
</g>
<g>
</g>
</svg>
