<svg width="24" height="24" viewBox="0 0 24 24" fill="none" xmlns="http://www.w3.org/2000/svg">
<path d="M12.8553 5.83874L12.8554 5.83875C12.8961 5.29786 13.1397 4.79233 13.5375 4.42351C13.9352 4.0547 14.4576 3.84984 15 3.85L12.8553 5.83874ZM12.8553 5.83874L12.8551 5.845M12.8553 5.83874L12.8551 5.845M12.8551 5.845L12.8501 5.995L12.85 5.995M12.8551 5.845L12.85 5.995M12.85 5.995V6M12.85 5.995V6M12.85 6V8V8.15M12.85 6V8.15M12.85 8.15H13M12.85 8.15H13M13 8.15H15C15 8.15 15 8.15 15 8.15C15.5424 8.15016 16.0648 7.9453 16.4625 7.57649C16.8603 7.20767 17.1039 6.70214 17.1446 6.16125L17.1447 6.16126M13 8.15L17.1447 6.16126M17.1447 6.16126L17.1449 6.15499M17.1447 6.16126L17.1449 6.15499M17.1449 6.15499L17.1499 6.00499L17.15 6.005M17.1449 6.15499L17.15 6.005M17.15 6.005V6M17.15 6.005V6M17.15 6C17.15 5.42978 16.9235 4.88292 16.5203 4.47972M17.15 6L16.5203 4.47972M16.5203 4.47972C16.1171 4.07653 15.5702 3.85001 15 3.85L16.5203 4.47972ZM18.3341 7.92596L18.2041 8.15106L18.464 8.151L22.85 8.15003V9.85H21H20.85V10V20C20.85 20.2254 20.7604 20.4416 20.601 20.601C20.4416 20.7604 20.2254 20.85 20 20.85H4C3.77457 20.85 3.55836 20.7604 3.39896 20.601C3.23955 20.4416 3.15 20.2254 3.15 20V10V9.85H3H1.15V8.15003L5.53597 8.151L5.79587 8.15106L5.66589 7.92598C5.18836 7.09909 5.03516 6.12424 5.23603 5.19073C5.43689 4.25721 5.9775 3.43165 6.75288 2.87435C7.52826 2.31705 8.48307 2.06778 9.43192 2.17493C10.3808 2.28208 11.2559 2.73802 11.8875 3.45421L12.0002 3.58206L12.1127 3.45397C12.4732 3.04342 12.9173 2.71467 13.4152 2.48978C13.9131 2.26488 14.4534 2.14904 14.9997 2.15L15 2L15 2.15C15.676 2.14992 16.34 2.3278 16.9254 2.66577C17.5108 3.00373 17.9969 3.48986 18.3348 4.07528C18.6728 4.6607 18.8506 5.32477 18.8505 6.00072C18.8503 6.67667 18.6723 7.34067 18.3341 7.92596ZM11.15 10V9.85H11H5H4.85V10V19V19.15H5H11H11.15V19V10ZM19.15 10V9.85H19H13H12.85V10V19V19.15H13H19H19.15V19V10ZM9.00503 3.85008L9.00503 3.85002L9.00067 3.85C8.44276 3.8475 7.90573 4.06198 7.50303 4.44811C7.10033 4.83424 6.8635 5.36179 6.84256 5.91931C6.82163 6.47683 7.01824 7.02065 7.39085 7.4359C7.76346 7.85114 8.2829 8.10528 8.83942 8.14463L8.83941 8.14473L8.845 8.14492L8.995 8.14992L8.995 8.15H9H11H11.15V8V6C11.15 5.48622 10.9661 4.98941 10.6314 4.59956C10.2968 4.2097 9.83358 3.95257 9.32573 3.87473L9.32574 3.87463L9.32041 3.87401L9.16641 3.85601L9.16647 3.8555L9.15403 3.85508L9.00503 3.85008Z" fill="white" stroke="url(#paint0_linear_131_1678)" stroke-width="0.3"/>
<defs>
<linearGradient id="paint0_linear_131_1678" x1="12" y1="1.99999" x2="12" y2="21" gradientUnits="userSpaceOnUse">
<stop stop-color="#8639B5"/>
<stop offset="1" stop-color="#092056"/>
</linearGradient>
</defs>
</svg>
