<svg width="24" height="24" viewBox="0 0 24 24" fill="none" xmlns="http://www.w3.org/2000/svg">
<path d="M9.59297 15.85L9.54536 16.037L8.64236 19.584C8.51001 20.1039 8.55952 20.6534 8.78268 21.1413C9.00583 21.6292 9.38919 22.026 9.86906 22.2658L9.86914 22.2659L11.683 23.1738L9.59297 15.85ZM9.59297 15.85H9.4M9.59297 15.85H9.4M9.4 15.85H3C2.50935 15.85 2.0388 15.6551 1.69185 15.3081C1.34491 14.9612 1.15 14.4907 1.15 14L1.15 11.896L1.15 11.8958M9.4 15.85L1.15 11.8958M1.15 11.8958C1.14975 11.6541 1.19688 11.4147 1.28872 11.1911C1.28873 11.191 1.28874 11.191 1.28875 11.191L4.38469 3.67714L4.38475 3.677M1.15 11.8958L4.38475 3.677M4.38475 3.677C4.44874 3.52124 4.55755 3.388 4.69738 3.29417C4.83721 3.20034 5.00176 3.15017 5.17015 3.15L22 3.15C22.2254 3.15 22.4416 3.23955 22.601 3.39896C22.7604 3.55836 22.85 3.77457 22.85 4V14C22.85 14.2254 22.7604 14.4416 22.601 14.601C22.4416 14.7604 22.2254 14.85 22 14.85H18.518C18.518 14.85 18.518 14.85 18.518 14.85C18.3339 14.85 18.1525 14.8941 17.989 14.9788C17.8255 15.0634 17.6847 15.1861 17.5785 15.3365L17.5785 15.3365M4.38475 3.677L17.5785 15.3365M17.5785 15.3365L12.1255 23.0625L12.248 23.149M17.5785 15.3365L12.248 23.149M12.248 23.149L12.1254 23.0625C12.0772 23.1309 12.006 23.1797 11.9249 23.2001M12.248 23.149L11.9249 23.2001M17.15 13.4977L17.0762 13.5412C16.731 13.7447 16.427 14.0203 16.1895 14.3565C16.1895 14.3565 16.1895 14.3565 16.1895 14.3565L11.4795 21.0285L11.4053 21.1337L11.29 21.0762L10.629 20.7462L10.629 20.7462C10.4961 20.6798 10.39 20.57 10.3283 20.4349C10.2666 20.2999 10.2529 20.1478 10.2897 20.0039M17.15 13.4977L10.435 20.041M17.15 13.4977V13.412V5V4.85H17H5.84H5.73955L5.7013 4.94288L2.8613 11.8389L2.85 11.8663V11.896V14V14.15H3H9.39998C9.39999 14.15 9.39999 14.15 9.4 14.15C9.68175 14.15 9.95977 14.2144 10.2128 14.3383C10.4659 14.4621 10.6874 14.6421 10.8603 14.8646C11.0332 15.087 11.1531 15.346 11.2107 15.6218C11.2682 15.8976 11.2621 16.183 11.1926 16.456M17.15 13.4977L11.338 16.493M10.2897 20.0039L10.435 20.041M10.2897 20.0039L10.2896 20.004L10.435 20.041M10.2897 20.0039L11.1926 16.456M10.435 20.041L11.338 16.493M11.1926 16.456L11.338 16.493M11.1926 16.456L11.1926 16.456L11.338 16.493M11.9249 23.2001C11.8437 23.2206 11.758 23.2112 11.6831 23.1739L11.9249 23.2001ZM18.85 13V13.15H19H21H21.15V13V5V4.85H21H19H18.85V5V13Z" fill="white" stroke="url(#paint0_linear_1281_658)" stroke-width="0.3"/>
<defs>
<linearGradient id="paint0_linear_1281_658" x1="12" y1="3" x2="12" y2="23.3607" gradientUnits="userSpaceOnUse">
<stop stop-color="#8639B5"/>
<stop offset="1" stop-color="#092056"/>
</linearGradient>
</defs>
</svg>
