<svg width="24" height="24" viewBox="0 0 24 24" fill="none" xmlns="http://www.w3.org/2000/svg">
<path d="M16.9 6V6.1H17H21.9V7.9H20H19.9V8V21C19.9 21.2387 19.8052 21.4676 19.6364 21.6364C19.4676 21.8052 19.2387 21.9 19 21.9H5C4.7613 21.9 4.53239 21.8052 4.3636 21.6364C4.19482 21.4676 4.1 21.2387 4.1 21V8V7.9H4H2.1V6.1H7H7.1V6V3C7.1 2.76131 7.19482 2.53239 7.3636 2.3636C7.53239 2.19482 7.76131 2.1 8 2.1H16C16.2387 2.1 16.4676 2.19482 16.6364 2.3636C16.8052 2.53239 16.9 2.76131 16.9 3V6ZM18.1 8V7.9H18H6H5.9V8V20V20.1H6H18H18.1V20V8ZM9 3.9H8.9V4V6V6.1H9H15H15.1V6V4V3.9H15H9Z" fill="black" stroke="white" stroke-width="0.2"/>
</svg>
