<svg width="24" height="24" viewBox="0 0 24 24" fill="none" xmlns="http://www.w3.org/2000/svg">
<path d="M15.7987 9.75673L15.8694 9.68602L15.7987 9.61531L14.3847 8.20131L14.314 8.1306L14.2433 8.20131L4.92929 17.5153L4.9 17.5446V17.586V19V19.1H5H6.414H6.45542L6.48471 19.0707L15.7987 9.75673ZM17.0713 8.34273L17.142 8.41344L17.2127 8.34273L18.6267 6.92873L18.6974 6.85802L18.6267 6.78731L17.2127 5.37331L17.142 5.3026L17.0713 5.37331L15.6573 6.78731L15.5866 6.85802L15.6573 6.92873L17.0713 8.34273ZM20.6073 7.49432L7.20158 20.9H3.1V16.7984L16.5057 3.39274C16.5057 3.39274 16.5057 3.39274 16.5057 3.39273C16.6745 3.22402 16.9034 3.12924 17.142 3.12924C17.3806 3.12924 17.6095 3.22402 17.7783 3.39273C17.7783 3.39274 17.7783 3.39274 17.7783 3.39274L20.6073 6.22173C20.776 6.3905 20.8708 6.61937 20.8708 6.85802C20.8708 7.09667 20.776 7.32555 20.6073 7.49432Z" fill="black" stroke="white" stroke-width="0.2"/>
</svg>
