<svg width="32" height="32" viewBox="0 0 32 32" fill="none" xmlns="http://www.w3.org/2000/svg">
<path d="M27 0H5C2.23858 0 0 2.23858 0 5V27C0 29.7614 2.23858 32 5 32H27C29.7614 32 32 29.7614 32 27V5C32 2.23858 29.7614 0 27 0Z" fill="url(#paint0_radial_787_2100)"/>
<path d="M27 0H5C2.23858 0 0 2.23858 0 5V27C0 29.7614 2.23858 32 5 32H27C29.7614 32 32 29.7614 32 27V5C32 2.23858 29.7614 0 27 0Z" fill="url(#paint1_radial_787_2100)"/>
<path d="M15.9992 9.19995C18.1992 9.19995 18.4992 9.19995 19.3992 9.19995C20.1992 9.19995 20.5992 9.39995 20.8992 9.49995C21.2992 9.69995 21.5992 9.79995 21.8992 10.1C22.1992 10.4 22.3992 10.7 22.4992 11.1C22.5992 11.4 22.6992 11.8 22.7992 12.6C22.7992 13.5 22.7992 13.7 22.7992 16C22.7992 18.3 22.7992 18.5 22.7992 19.4C22.7992 20.2 22.5992 20.6 22.4992 20.9C22.2992 21.3 22.1992 21.6 21.8992 21.9C21.5992 22.2 21.2992 22.4 20.8992 22.5C20.5992 22.6 20.1992 22.7 19.3992 22.8C18.4992 22.8 18.2992 22.8 15.9992 22.8C13.6992 22.8 13.4992 22.8 12.5992 22.8C11.7992 22.8 11.3992 22.6 11.0992 22.5C10.6992 22.3 10.3992 22.2 10.0992 21.9C9.79922 21.6 9.59922 21.3 9.49922 20.9C9.39922 20.6 9.29922 20.2 9.19922 19.4C9.19922 18.5 9.19922 18.3 9.19922 16C9.19922 13.7 9.19922 13.5 9.19922 12.6C9.19922 11.8 9.39922 11.4 9.49922 11.1C9.69922 10.7 9.79922 10.4 10.0992 10.1C10.3992 9.79995 10.6992 9.59995 11.0992 9.49995C11.3992 9.39995 11.7992 9.29995 12.5992 9.19995C13.4992 9.19995 13.7992 9.19995 15.9992 9.19995ZM15.9992 7.69995C13.6992 7.69995 13.4992 7.69995 12.5992 7.69995C11.6992 7.69995 11.0992 7.89995 10.5992 8.09995C10.0992 8.29995 9.59922 8.59995 9.09922 9.09995C8.59922 9.59995 8.39922 9.99995 8.09922 10.6C7.89922 11.1 7.79922 11.7 7.69922 12.6C7.69922 13.5 7.69922 13.8 7.69922 16C7.69922 18.3 7.69922 18.5 7.69922 19.4C7.69922 20.3 7.89922 20.9 8.09922 21.4C8.29922 21.9 8.59922 22.4 9.09922 22.9C9.59922 23.4 9.99922 23.6 10.5992 23.9C11.0992 24.1 11.6992 24.1999 12.5992 24.2999C13.4992 24.2999 13.7992 24.2999 15.9992 24.2999C18.1992 24.2999 18.4992 24.2999 19.3992 24.2999C20.2992 24.2999 20.8992 24.1 21.3992 23.9C21.8992 23.7 22.3992 23.4 22.8992 22.9C23.3992 22.4 23.5992 22 23.8992 21.4C24.0992 20.9 24.1992 20.3 24.2992 19.4C24.2992 18.5 24.2992 18.2 24.2992 16C24.2992 13.8 24.2992 13.5 24.2992 12.6C24.2992 11.7 24.0992 11.1 23.8992 10.6C23.6992 10.1 23.3992 9.59995 22.8992 9.09995C22.3992 8.59995 21.9992 8.39995 21.3992 8.09995C20.8992 7.89995 20.2992 7.79995 19.3992 7.69995C18.4992 7.69995 18.2992 7.69995 15.9992 7.69995Z" fill="white"/>
<path d="M15.9992 11.7C13.5992 11.7 11.6992 13.6 11.6992 16C11.6992 18.4 13.5992 20.3 15.9992 20.3C18.3992 20.3 20.2992 18.4 20.2992 16C20.2992 13.6 18.3992 11.7 15.9992 11.7ZM15.9992 18.8C14.4992 18.8 13.1992 17.6 13.1992 16C13.1992 14.5 14.3992 13.2 15.9992 13.2C17.4992 13.2 18.7992 14.4 18.7992 16C18.7992 17.5 17.4992 18.8 15.9992 18.8Z" fill="white"/>
<path d="M20.3992 12.6C20.9515 12.6 21.3992 12.1522 21.3992 11.6C21.3992 11.0477 20.9515 10.6 20.3992 10.6C19.8469 10.6 19.3992 11.0477 19.3992 11.6C19.3992 12.1522 19.8469 12.6 20.3992 12.6Z" fill="white"/>
<defs>
<radialGradient id="paint0_radial_787_2100" cx="0" cy="0" r="1" gradientUnits="userSpaceOnUse" gradientTransform="translate(27.04 36.32) rotate(-115.776) scale(43.6379 64.9064)">
<stop offset="0.24392" stop-color="#FF1B90"/>
<stop offset="0.436673" stop-color="#F80261"/>
<stop offset="0.688476" stop-color="#ED00C0"/>
<stop offset="0.776787" stop-color="#C500E9"/>
<stop offset="0.893155" stop-color="#7017FF"/>
</radialGradient>
<radialGradient id="paint1_radial_787_2100" cx="0" cy="0" r="1" gradientUnits="userSpaceOnUse" gradientTransform="translate(11.6 30.896) rotate(-57.4396) scale(18.9079 19.6669)">
<stop stop-color="#FFD600"/>
<stop offset="0.484375" stop-color="#FF6930"/>
<stop offset="0.734375" stop-color="#FE3B36"/>
<stop offset="1" stop-color="#FE3B36" stop-opacity="0"/>
</radialGradient>
</defs>
</svg>
