<svg width="28" height="20" viewBox="0 0 28 20" fill="none" xmlns="http://www.w3.org/2000/svg">
<rect x="7" y="1" width="20" height="13" fill="white"/>
<path fill-rule="evenodd" clip-rule="evenodd" d="M26 -6.55671e-08C26.8284 -2.93554e-08 27.5 0.671573 27.5 1.5L27.5 13C27.5 13.8284 26.8284 14.5 26 14.5L7.5 14.5C6.67157 14.5 6 13.8284 6 13L6 1.5C6 0.671572 6.67157 -9.10439e-07 7.5 -8.74228e-07L26 -6.55671e-08ZM26.5 1.5C26.5 1.22386 26.2761 1 26 1L7.5 0.999999C7.22386 0.999999 7 1.22386 7 1.5L7 13C7 13.2761 7.22386 13.5 7.5 13.5L26 13.5C26.2761 13.5 26.5 13.2761 26.5 13L26.5 1.5Z" fill="#CB11AB"/>
<rect x="2" y="6" width="20" height="13" fill="white"/>
<path fill-rule="evenodd" clip-rule="evenodd" d="M22.5 6.5C22.5 5.67157 21.8284 5 21 5L2.5 5C1.67157 5 1 5.67157 1 6.5L0.999999 18C0.999999 18.8284 1.67157 19.5 2.5 19.5L21 19.5C21.8284 19.5 22.5 18.8284 22.5 18L22.5 6.5ZM21 6C21.2761 6 21.5 6.22386 21.5 6.5L21.5 15L2 15L2 6.5C2 6.22386 2.22386 6 2.5 6L21 6ZM2 16L2 18C2 18.2761 2.22386 18.5 2.5 18.5L21 18.5C21.2761 18.5 21.5 18.2761 21.5 18L21.5 16L2 16Z" fill="#CB11AB"/>
<path d="M21.5 15L21.5 15.1L21.6 15.1L21.6 15L21.5 15ZM2 15L1.9 15L1.9 15.1L2 15.1L2 15ZM2 16L2 15.9L1.9 15.9L1.9 16L2 16ZM2 18L1.9 18L2 18ZM21.5 18L21.4 18L21.5 18ZM21.5 16L21.6 16L21.6 15.9L21.5 15.9L21.5 16ZM21 5.1C21.7732 5.1 22.4 5.7268 22.4 6.5L22.6 6.5C22.6 5.61634 21.8837 4.9 21 4.9L21 5.1ZM2.5 5.1L21 5.1L21 4.9L2.5 4.9L2.5 5.1ZM1.1 6.5C1.1 5.7268 1.7268 5.1 2.5 5.1L2.5 4.9C1.61634 4.9 0.9 5.61634 0.9 6.5L1.1 6.5ZM1.1 18L1.1 6.5L0.9 6.5L0.899999 18L1.1 18ZM2.5 19.4C1.7268 19.4 1.1 18.7732 1.1 18L0.899999 18C0.899999 18.8837 1.61634 19.6 2.5 19.6L2.5 19.4ZM21 19.4L2.5 19.4L2.5 19.6L21 19.6L21 19.4ZM22.4 18C22.4 18.7732 21.7732 19.4 21 19.4L21 19.6C21.8837 19.6 22.6 18.8837 22.6 18L22.4 18ZM22.4 6.5L22.4 18L22.6 18L22.6 6.5L22.4 6.5ZM21.6 6.5C21.6 6.16863 21.3314 5.9 21 5.9L21 6.1C21.2209 6.1 21.4 6.27909 21.4 6.5L21.6 6.5ZM21.6 15L21.6 6.5L21.4 6.5L21.4 15L21.6 15ZM2 15.1L21.5 15.1L21.5 14.9L2 14.9L2 15.1ZM1.9 6.5L1.9 15L2.1 15L2.1 6.5L1.9 6.5ZM2.5 5.9C2.16863 5.9 1.9 6.16863 1.9 6.5L2.1 6.5C2.1 6.27909 2.27909 6.1 2.5 6.1L2.5 5.9ZM21 5.9L2.5 5.9L2.5 6.1L21 6.1L21 5.9ZM1.9 16L1.9 18L2.1 18L2.1 16L1.9 16ZM1.9 18C1.9 18.3314 2.16863 18.6 2.5 18.6L2.5 18.4C2.27909 18.4 2.1 18.2209 2.1 18L1.9 18ZM2.5 18.6L21 18.6L21 18.4L2.5 18.4L2.5 18.6ZM21 18.6C21.3314 18.6 21.6 18.3314 21.6 18L21.4 18C21.4 18.2209 21.2209 18.4 21 18.4L21 18.6ZM21.6 18L21.6 16L21.4 16L21.4 18L21.6 18ZM21.5 15.9L2 15.9L2 16.1L21.5 16.1L21.5 15.9Z" fill="#CB11AB"/>
</svg>
