<svg width="14" height="13" viewBox="0 0 14 13" fill="none" xmlns="http://www.w3.org/2000/svg">
<path d="M6.99922 0.200012C7.43414 0.200012 7.78672 0.552588 7.78672 0.987512V5.71251H12.5117C12.9466 5.71251 13.2992 6.06509 13.2992 6.50001C13.2992 6.93494 12.9466 7.28751 12.5117 7.28751H7.78672V12.0125C7.78672 12.4474 7.43414 12.8 6.99922 12.8C6.56429 12.8 6.21172 12.4474 6.21172 12.0125V7.28751H1.48672C1.05179 7.28751 0.699219 6.93494 0.699219 6.50001C0.699219 6.06509 1.05179 5.71251 1.48672 5.71251H6.21172V0.987512C6.21172 0.552588 6.56429 0.200012 6.99922 0.200012Z" fill="white"/>
</svg>
