<svg width="18" height="19" viewBox="0 0 18 19" fill="none" xmlns="http://www.w3.org/2000/svg">
<path d="M9.0002 3.20001C9.43512 3.20001 9.7877 3.55259 9.7877 3.98751V8.71251H14.5127C14.9476 8.71251 15.3002 9.06509 15.3002 9.50001C15.3002 9.93494 14.9476 10.2875 14.5127 10.2875H9.7877V15.0125C9.7877 15.4474 9.43512 15.8 9.0002 15.8C8.56527 15.8 8.2127 15.4474 8.2127 15.0125V10.2875H3.4877C3.05277 10.2875 2.7002 9.93494 2.7002 9.50001C2.7002 9.06509 3.05277 8.71251 3.4877 8.71251H8.2127V3.98751C8.2127 3.55259 8.56527 3.20001 9.0002 3.20001Z" fill="white"/>
</svg>
