<svg width="24" height="25" viewBox="0 0 24 25" fill="none" xmlns="http://www.w3.org/2000/svg">
<path d="M0 12.5C0 5.87258 5.37258 0.5 12 0.5C18.6274 0.5 24 5.87258 24 12.5C24 19.1274 18.6274 24.5 12 24.5C5.37258 24.5 0 19.1274 0 12.5Z" fill="#23262F"/>
<path d="M11.9998 9.31072C12.9763 9.31072 13.6349 9.73249 14.0105 10.0849L15.478 8.65205C14.5767 7.81427 13.4038 7.30005 11.9998 7.30005C9.96605 7.30005 8.2096 8.46716 7.35449 10.1658L9.03583 11.4716C9.4576 10.2178 10.6247 9.31072 11.9998 9.31072Z" fill="#FCFCFD"/>
<path d="M16.992 12.6156C16.992 12.188 16.9573 11.876 16.8822 11.5525H12V13.4823H14.8658C14.808 13.9618 14.496 14.684 13.8027 15.1694L15.4436 16.4405C16.4258 15.5334 16.992 14.1987 16.992 12.6156Z" fill="#FCFCFD"/>
<path d="M9.04158 13.5284C8.9318 13.2049 8.86825 12.8582 8.86825 12.5C8.86825 12.1418 8.9318 11.7951 9.0358 11.4715L7.35447 10.1658C7.00203 10.8707 6.7998 11.6622 6.7998 12.5C6.7998 13.3378 7.00203 14.1293 7.35447 14.8342L9.04158 13.5284Z" fill="#FCFCFD"/>
<path d="M11.9999 17.7C13.4039 17.7 14.5826 17.2378 15.4435 16.4404L13.8026 15.1693C13.3635 15.4756 12.7741 15.6893 11.9999 15.6893C10.6248 15.6893 9.45768 14.7822 9.04168 13.5284L7.36035 14.8342C8.21546 16.5329 9.96613 17.7 11.9999 17.7Z" fill="#FCFCFD"/>
</svg>
