<svg width="18" height="18" viewBox="0 0 18 18" fill="none" xmlns="http://www.w3.org/2000/svg">
<path d="M4.5 6.1H4.6V6V5.25C4.6 4.08305 5.06357 2.96389 5.88873 2.13873C6.71389 1.31357 7.83305 0.85 9 0.85C10.167 0.85 11.2861 1.31357 12.1113 2.13873C12.9364 2.96389 13.4 4.08305 13.4 5.25V6V6.1H13.5H15C15.1724 6.1 15.3377 6.16848 15.4596 6.29038C15.5815 6.41228 15.65 6.57761 15.65 6.75V15.75C15.65 15.9224 15.5815 16.0877 15.4596 16.2096C15.3377 16.3315 15.1724 16.4 15 16.4H3C2.82761 16.4 2.66228 16.3315 2.54038 16.2096C2.41848 16.0877 2.35 15.9224 2.35 15.75V6.75C2.35 6.57761 2.41848 6.41228 2.54038 6.29038C2.66228 6.16848 2.82761 6.1 3 6.1H4.5ZM14.35 7.5V7.4H14.25H3.75H3.65V7.5V15V15.1H3.75H14.25H14.35V15V7.5ZM8.35 11.799V11.7413L8.3 11.7124C8.0331 11.5583 7.82451 11.3204 7.70657 11.0357C7.58863 10.751 7.56794 10.4353 7.6477 10.1376C7.72747 9.83993 7.90323 9.57688 8.14773 9.38927C8.39224 9.20165 8.69181 9.09996 9 9.09996C9.30819 9.09996 9.60776 9.20165 9.85227 9.38927C10.0968 9.57688 10.2725 9.83993 10.3523 10.1376C10.4321 10.4353 10.4114 10.751 10.2934 11.0357C10.1755 11.3204 9.9669 11.5583 9.7 11.7124L9.65 11.7413V11.799V13.4H8.35V11.799ZM5.9 6V6.1H6H12H12.1V6V5.25C12.1 4.42783 11.7734 3.63933 11.192 3.05797C10.6107 2.47661 9.82217 2.15 9 2.15C8.17783 2.15 7.38933 2.47661 6.80797 3.05797C6.22661 3.63933 5.9 4.42783 5.9 5.25V6Z" fill="black" stroke="white" stroke-width="0.2"/>
</svg>
